# xmcd CD database file
#
# Track frame offsets:
#	150
#	16282
#	30098
#	54149
#	74946
#	93950
#	114815
#	133376
#	148689
#	166493
#	184781
#	210415
#
# Disc length: 2898 seconds
#
# Revision: 0
# Processed by: cddbd v1.5.1PL0 Copyright (c) Steve Scherf et al.
# Submitted via: CDex 1.50
#
DISCID=a00b500c
DTITLE=Caroline Henderson - Made in Europe
DYEAR=1900
DGENRE=Jazz
TTITLE0=Lush Life
TTITLE1=Monday Date
TTITLE2=You're My Thrill
TTITLE3=Velvet
TTITLE4=Tenderly
TTITLE5=Libertango
TTITLE6=Made in Europe
TTITLE7=Mother Earth
TTITLE8=Lazy Afternoon
TTITLE9=Someone To Watch over me
TTITLE10=To lay Me down
TTITLE11=Om Natten
EXTD=
EXTT0=
EXTT1=
EXTT2=
EXTT3=
EXTT4=
EXTT5=
EXTT6=
EXTT7=
EXTT8=
EXTT9=
EXTT10=
EXTT11=
PLAYORDER=
